<svg width="500" height="500" viewBox="0 0 500 500" fill="none" xmlns="http://www.w3.org/2000/svg">
<path d="M218 337L250.5 389L144 408.5L218 337Z" fill="#9DE0AD"/>
<path d="M76 102L214.5 153.5L264 102H76Z" fill="#54ADA8"/>
<path d="M176.447 146L176.447 355L105 254.75L176.447 146Z" fill="#547980"/>
<path d="M450.5 71L326 186L264 124L450.5 71Z" fill="#504F4F"/>
<path d="M260 60L319.5 83L215 120.5L181 250L260 60Z" fill="#E5FCC2"/>
<path d="M375.357 168L287 307.25V202.75L375.357 168Z" fill="#9DE0AD"/>
<path d="M357 241L346 386.5H250L357 241Z" fill="#54ADA8"/>
<path d="M277.653 155L202.5 276.5L295 245.75H176L277.653 155Z" fill="#547980"/>
<path d="M260 262L319.5 272.5L140 352.75L260 262Z" fill="#504F4F"/>
<path d="M103.878 181L124.378 419L74 260.5L103.878 181Z" fill="#E5FCC2"/>
</svg>
